<svg width="49" height="40" viewBox="0 0 49 40" fill="none" xmlns="http://www.w3.org/2000/svg">
<g id="icn resize icn-lg" clip-path="url(#clip0_10_2099)">
<path id="Vector" fill-rule="evenodd" clip-rule="evenodd" d="M46.4165 38.6666C46.4165 38.6666 49.4998 38.6666 49.4998 35.5555C49.4998 32.4444 46.4165 23.111 34.0832 23.111C21.7498 23.111 18.6665 32.4444 18.6665 35.5555C18.6665 38.6666 21.7498 38.6666 21.7498 38.6666H46.4165ZM21.8177 35.5555H46.3487C46.3631 35.5538 46.3775 35.5517 46.3918 35.5493L46.4165 35.543C46.4103 34.7217 45.9016 32.3386 44.0732 30.1919C42.3712 28.179 39.3803 26.2221 34.0832 26.2221C28.7891 26.2221 25.7983 28.1821 24.0932 30.1919C22.2648 32.3386 21.7529 34.7248 21.7498 35.543C21.7724 35.5474 21.795 35.5516 21.8177 35.5555ZM34.0832 16.8888C35.7187 16.8888 37.2872 16.2333 38.4437 15.0664C39.6001 13.8995 40.2498 12.3168 40.2498 10.6666C40.2498 9.01635 39.6001 7.4337 38.4437 6.26681C37.2872 5.09992 35.7187 4.44436 34.0832 4.44436C32.4477 4.44436 30.8792 5.09992 29.7227 6.26681C28.5662 7.4337 27.9165 9.01635 27.9165 10.6666C27.9165 12.3168 28.5662 13.8995 29.7227 15.0664C30.8792 16.2333 32.4477 16.8888 34.0832 16.8888ZM43.3332 10.6666C43.3332 11.8923 43.0939 13.1059 42.6291 14.2383C42.1642 15.3707 41.4828 16.3996 40.6239 17.2662C39.765 18.1329 38.7453 18.8204 37.623 19.2895C36.5007 19.7585 35.2979 19.9999 34.0832 19.9999C32.8684 19.9999 31.6656 19.7585 30.5433 19.2895C29.4211 18.8204 28.4014 18.1329 27.5424 17.2662C26.6835 16.3996 26.0021 15.3707 25.5373 14.2383C25.0724 13.1059 24.8332 11.8923 24.8332 10.6666C24.8332 8.19123 25.8077 5.81726 27.5424 4.06692C29.2771 2.31658 31.6299 1.33325 34.0832 1.33325C36.5364 1.33325 38.8892 2.31658 40.6239 4.06692C42.3586 5.81726 43.3332 8.19123 43.3332 10.6666ZM21.5525 23.9821C20.3191 23.5903 19.0477 23.3326 17.76 23.2137C17.0364 23.1443 16.31 23.11 15.5832 23.111C3.24984 23.111 0.166504 32.4444 0.166504 35.5555C0.166504 37.6306 1.19325 38.6666 3.24984 38.6666H16.2492C15.7921 37.6953 15.5641 36.6305 15.5832 35.5555C15.5832 32.4132 16.7456 29.2026 18.944 26.5208C19.6933 25.6061 20.5658 24.7506 21.5525 23.9821ZM15.3365 26.2221C10.1935 26.2844 7.27359 28.2133 5.59317 30.1919C3.75242 32.351 3.24984 34.7435 3.24984 35.5555H12.4998C12.4998 32.3044 13.4958 29.0657 15.3365 26.2221ZM4.7915 12.2221C4.7915 9.74679 5.76605 7.37282 7.50077 5.62248C9.23548 3.87214 11.5883 2.88881 14.0415 2.88881C16.4948 2.88881 18.8475 3.87214 20.5822 5.62248C22.317 7.37282 23.2915 9.74679 23.2915 12.2221C23.2915 14.6975 22.317 17.0715 20.5822 18.8218C18.8475 20.5721 16.4948 21.5555 14.0415 21.5555C11.5883 21.5555 9.23548 20.5721 7.50077 18.8218C5.76605 17.0715 4.7915 14.6975 4.7915 12.2221ZM14.0415 5.99992C12.406 5.99992 10.8375 6.65547 9.68101 7.82236C8.52454 8.98926 7.87484 10.5719 7.87484 12.2221C7.87484 13.8724 8.52454 15.455 9.68101 16.6219C10.8375 17.7888 12.406 18.4444 14.0415 18.4444C15.677 18.4444 17.2455 17.7888 18.402 16.6219C19.5585 15.455 20.2082 13.8724 20.2082 12.2221C20.2082 10.5719 19.5585 8.98926 18.402 7.82236C17.2455 6.65547 15.677 5.99992 14.0415 5.99992Z" fill="#23A6F0"/>
</g>
<defs>
<clipPath id="clip0_10_2099">
<rect width="48" height="39.5295" fill="white" transform="translate(0.5)"/>
</clipPath>
</defs>
</svg>
