<svg width="33" height="32" viewBox="0 0 33 32" fill="none" xmlns="http://www.w3.org/2000/svg">
<g id="icn settings .icn-md" clip-path="url(#clip0_10_2197)">
<path id="Vector" fill-rule="evenodd" clip-rule="evenodd" d="M28.875 2.087H4.125C3.57799 2.087 3.05339 2.30688 2.66659 2.69827C2.2798 3.08966 2.0625 3.6205 2.0625 4.174V20.87C2.0625 21.4235 2.2798 21.9544 2.66659 22.3458C3.05339 22.7371 3.57799 22.957 4.125 22.957H9.28125C9.92164 22.957 10.5532 23.1079 11.126 23.3977C11.6988 23.6875 12.197 24.1082 12.5813 24.6266L16.5 29.913L20.4187 24.6266C20.803 24.1082 21.3012 23.6875 21.874 23.3977C22.4468 23.1079 23.0784 22.957 23.7188 22.957H28.875C29.422 22.957 29.9466 22.7371 30.3334 22.3458C30.7202 21.9544 30.9375 21.4235 30.9375 20.87V4.174C30.9375 3.6205 30.7202 3.08966 30.3334 2.69827C29.9466 2.30688 29.422 2.087 28.875 2.087ZM4.125 0C3.03098 0 1.98177 0.43976 1.20818 1.22254C0.434597 2.00531 0 3.06699 0 4.174L0 20.87C0 21.977 0.434597 23.0387 1.20818 23.8215C1.98177 24.6043 3.03098 25.044 4.125 25.044H9.28125C9.60144 25.044 9.91724 25.1195 10.2036 25.2644C10.49 25.4092 10.7391 25.6196 10.9313 25.8788L14.85 31.1652C15.0421 31.4244 15.2912 31.6348 15.5776 31.7797C15.864 31.9246 16.1798 32 16.5 32C16.8202 32 17.136 31.9246 17.4224 31.7797C17.7088 31.6348 17.9579 31.4244 18.15 31.1652L22.0688 25.8788C22.2609 25.6196 22.51 25.4092 22.7964 25.2644C23.0828 25.1195 23.3986 25.044 23.7188 25.044H28.875C29.969 25.044 31.0182 24.6043 31.7918 23.8215C32.5654 23.0387 33 21.977 33 20.87V4.174C33 3.06699 32.5654 2.00531 31.7918 1.22254C31.0182 0.43976 29.969 0 28.875 0L4.125 0Z" fill="#23A6F0"/>
<path id="Vector_2" fill-rule="evenodd" clip-rule="evenodd" d="M14.5214 10.5287C14.1071 9.92278 13.4945 9.45953 12.7758 9.20855C12.0571 8.95757 11.2711 8.93242 10.5358 9.1369C9.80058 9.34137 9.15588 9.7644 8.6986 10.3424C8.24133 10.9205 7.9962 11.6222 8.00004 12.3423C8.00043 12.9386 8.17132 13.5238 8.49487 14.0369C8.81843 14.5499 9.28277 14.972 9.83938 15.259C10.396 15.5459 11.0245 15.6873 11.6591 15.6682C12.2938 15.6491 12.9113 15.4704 13.4473 15.1506C13.1686 15.9276 12.6497 16.7565 11.7946 17.5874C11.631 17.7463 11.5413 17.9597 11.5453 18.1807C11.5493 18.4017 11.6466 18.6122 11.8159 18.7658C11.9851 18.9194 12.2124 19.0036 12.4477 18.9999C12.6831 18.9961 12.9072 18.9047 13.0708 18.7458C16.2315 15.6699 15.821 12.3263 14.5214 10.5327V10.5287ZM23.0294 10.5287C22.6151 9.92278 22.0025 9.45953 21.2838 9.20855C20.5651 8.95757 19.779 8.93242 19.0438 9.1369C18.3086 9.34137 17.6639 9.7644 17.2066 10.3424C16.7493 10.9205 16.5042 11.6222 16.508 12.3423C16.5084 12.9386 16.6793 13.5238 17.0029 14.0369C17.3264 14.5499 17.7907 14.972 18.3474 15.259C18.904 15.5459 19.5324 15.6873 20.1671 15.6682C20.8018 15.6491 21.4193 15.4704 21.9553 15.1506C21.6766 15.9276 21.1576 16.7565 20.3026 17.5874C20.139 17.7463 20.0493 17.9597 20.0533 18.1807C20.0573 18.4017 20.1546 18.6122 20.3239 18.7658C20.4931 18.9194 20.7204 19.0036 20.9557 18.9999C21.1911 18.9961 21.4152 18.9047 21.5788 18.7458C24.7395 15.6699 24.329 12.3263 23.0294 10.5327V10.5287Z" fill="#23A6F0"/>
</g>
<defs>
<clipPath id="clip0_10_2197">
<rect width="32" height="32" fill="white" transform="translate(0.5)"/>
</clipPath>
</defs>
</svg>
